<?xml version="1.0" encoding="UTF-8" standalone="no"?>
<!-- Generator: Adobe Illustrator 19.0.0, SVG Export Plug-In . SVG Version: 6.00 Build 0)  -->

<svg
   xmlns:dc="http://purl.org/dc/elements/1.1/"
   xmlns:cc="http://creativecommons.org/ns#"
   xmlns:rdf="http://www.w3.org/1999/02/22-rdf-syntax-ns#"
   xmlns:svg="http://www.w3.org/2000/svg"
   xmlns="http://www.w3.org/2000/svg"
   xmlns:sodipodi="http://sodipodi.sourceforge.net/DTD/sodipodi-0.dtd"
   xmlns:inkscape="http://www.inkscape.org/namespaces/inkscape"
   version="1.1"
   id="Layer_1"
   x="0px"
   y="0px"
   viewBox="0 0 496 496"
   style="enable-background:new 0 0 496 496;"
   xml:space="preserve"
   width="30"
   height="30"
   sodipodi:docname="airplane.svg"
   inkscape:version="0.92.3 (2405546, 2018-03-11)"><metadata
   id="metadata3809"><rdf:RDF><cc:Work
       rdf:about=""><dc:format>image/svg+xml</dc:format><dc:type
         rdf:resource="http://purl.org/dc/dcmitype/StillImage" /></cc:Work></rdf:RDF></metadata><defs
   id="defs3807" /><sodipodi:namedview
   pagecolor="#ffffff"
   bordercolor="#666666"
   borderopacity="1"
   objecttolerance="10"
   gridtolerance="10"
   guidetolerance="10"
   inkscape:pageopacity="0"
   inkscape:pageshadow="2"
   inkscape:window-width="1920"
   inkscape:window-height="986"
   id="namedview3805"
   showgrid="false"
   inkscape:zoom="8.9920412"
   inkscape:cx="8.420722"
   inkscape:cy="8.551012"
   inkscape:window-x="-11"
   inkscape:window-y="-11"
   inkscape:window-maximized="1"
   inkscape:current-layer="Layer_1" />
<g
   id="g3772"
   transform="rotate(90,248,248)">
	<g
   id="g3770">
		<g
   id="g3768">
			
				<rect
   x="55.990002"
   y="254.00999"
   transform="matrix(0.2167,0.9762,-0.9762,0.2167,306.0974,142.9137)"
   width="15.999"
   height="16.391001"
   id="rect3762" />
			<path
   d="M 448,233.232 V 192 h -56 v 10.904 L 304,155.24 V 92.752 c 0,-3.672 -0.368,-7.36 -1.088,-10.984 l -8.8,-43.96 C 289.736,15.896 270.344,0 248,0 225.656,0 206.264,15.896 201.88,37.808 l -8.8,43.968 C 192.368,85.392 192,89.08 192,92.752 v 62.488 l -88,47.664 V 192 H 48 v 41.232 l -48,26 V 304 H 16.688 L 192,273.512 v 63.336 c 0,19.536 2.992,38.824 8.6,57.488 L 120,451.88 V 496 h 16.984 l 89.768,-22.448 7.48,22.448 h 27.528 l 7.48,-22.448 88.816,22.208 L 376,496 v -44.12 l -80.6,-57.552 c 5.608,-18.664 8.6,-37.944 8.6,-57.488 V 273.504 L 478.632,303.872 496,304 V 259.232 Z M 64,208 h 24 v 3.568 l -24,13 z M 192,225.576 86.264,249.072 89.736,264.696 192,241.976 v 15.296 L 16,287.88 V 268.76 L 192,173.424 Z M 136,479.752 V 460.12 l 69.688,-49.76 15.992,47.984 z M 250.232,480 H 245.76 L 217.44,395.024 C 211.176,376.232 208,356.656 208,336.84 V 92.752 c 0,-2.624 0.256,-5.264 0.776,-7.84 l 8.8,-43.96 C 220.464,26.496 233.256,16 248,16 c 14.744,0 27.536,10.496 30.432,24.944 l 8.8,43.952 c 0.512,2.592 0.768,5.232 0.768,7.856 v 244.096 c 0,19.816 -3.176,39.392 -9.44,58.176 z M 360,460.12 v 19.632 l -85.68,-21.416 15.992,-47.984 z M 408,208 h 24 v 16.568 l -24,-13 z m 72,79.88 -176,-30.608 V 241.976 L 406.264,264.704 409.736,249.08 304,225.584 v -52.152 l 176,95.336 z"
   id="path3764"
   inkscape:connector-curvature="0" />
			<rect
   x="423.82901"
   y="254.203"
   transform="matrix(0.9762,0.2169,-0.2169,0.9762,67.1562,-87.4637)"
   width="16.392"
   height="16"
   id="rect3766" />
		</g>
	</g>
</g>
<g
   id="g3774">
</g>
<g
   id="g3776">
</g>
<g
   id="g3778">
</g>
<g
   id="g3780">
</g>
<g
   id="g3782">
</g>
<g
   id="g3784">
</g>
<g
   id="g3786">
</g>
<g
   id="g3788">
</g>
<g
   id="g3790">
</g>
<g
   id="g3792">
</g>
<g
   id="g3794">
</g>
<g
   id="g3796">
</g>
<g
   id="g3798">
</g>
<g
   id="g3800">
</g>
<g
   id="g3802">
</g>
</svg>